<svg width="169" height="44" viewBox="0 0 169 44" fill="none" xmlns="http://www.w3.org/2000/svg">
<g clip-path="url(#clip0_2986_4702)">
<path d="M58.9185 19.8478C60.6697 18.3488 62.7329 17.5994 65.1079 17.5994C67.8111 17.5994 70.1387 18.5906 72.0907 20.5731C73.0216 21.5022 73.7598 22.6158 74.2605 23.8467C74.7491 25.0868 74.9947 26.414 74.9833 27.7521C74.9833 30.5807 74.0195 32.9747 72.092 34.9339C70.141 36.9164 67.8134 37.9076 65.1093 37.9076C62.3825 37.9076 60.0549 36.9164 58.1265 34.9339C56.1981 32.9514 55.2343 30.5575 55.2352 27.7521V10.7802C55.22 10.2754 55.4083 9.78664 55.7555 9.42954C56.1027 9.07245 56.578 8.87879 57.0687 8.89443C57.5591 8.88341 58.0329 9.07656 58.3828 9.43004C58.7414 9.78138 58.9384 10.2724 58.9253 10.7816L58.9185 19.8478ZM65.1079 34.1194C65.9386 34.1251 66.7613 33.9522 67.5232 33.6116C68.2581 33.2855 68.9256 32.8178 69.4896 32.2336C70.0494 31.6504 70.4979 30.9644 70.8118 30.2111C71.4584 28.6402 71.4584 26.8668 70.8118 25.2959C70.4979 24.5426 70.0494 23.8566 69.4896 23.2734C68.9256 22.6893 68.2581 22.2215 67.5232 21.8953C65.9741 21.2184 64.2241 21.2184 62.675 21.8953C61.1982 22.5462 60.0252 23.7621 59.404 25.2861C58.7578 26.8629 58.7578 28.6413 59.404 30.2181C60.0252 31.7421 61.1982 32.958 62.675 33.6089C63.4421 33.9514 64.2703 34.1253 65.1066 34.1194H65.1079Z" fill="#223AD3"/>
<path d="M82.0693 13.9896C82.0659 15.0546 81.3313 15.9687 80.3149 16.1726C79.2986 16.3765 78.2838 15.8133 77.8915 14.8277C77.4992 13.8421 77.8387 12.7087 78.7023 12.121C79.5659 11.5333 80.7129 11.6552 81.4415 12.4121C81.8532 12.8264 82.0804 13.3972 82.0693 13.9896ZM78.0674 36.005V19.5032C78.0587 18.9949 78.2551 18.5056 78.6098 18.1516C78.9533 17.7977 79.4195 17.5989 79.9056 17.5989C80.3918 17.5989 80.858 17.7977 81.2014 18.1516C81.5543 18.508 81.754 18.9946 81.7561 19.5032V36.005C81.7541 36.5137 81.5544 37.0004 81.2014 37.3566C80.858 37.7105 80.3918 37.9094 79.9056 37.9094C79.4195 37.9094 78.9533 37.7105 78.6098 37.3566C78.255 37.0027 78.0586 36.5134 78.0674 36.005Z" fill="#223AD3"/>
<path d="M88.435 19.4849V19.8475C89.2971 19.1313 90.2679 18.5658 91.3086 18.1738C92.3718 17.7819 93.4937 17.5855 94.623 17.5935C95.1802 17.5961 95.7367 17.6324 96.2897 17.7023C96.8491 17.767 97.3992 17.898 97.9293 18.0929C98.3918 18.2569 98.8155 18.5192 99.1729 18.8628C99.5044 19.1952 99.6837 19.6563 99.6665 20.1321C99.6686 20.388 99.6177 20.6414 99.5173 20.8755C99.4205 21.1002 99.286 21.3056 99.12 21.4822C98.9554 21.6581 98.7573 21.7972 98.5382 21.8909C98.3088 21.9869 98.063 22.0344 97.8154 22.0304C97.5462 22.0193 97.2822 21.9514 97.0396 21.8309C96.2699 21.5233 95.4502 21.3695 94.6244 21.3776C93.7946 21.3718 92.9725 21.5413 92.2091 21.8756C90.726 22.5188 89.5459 23.7326 88.9205 25.258C88.5951 26.0431 88.4303 26.8887 88.4363 27.7421V36.0118C88.4348 37.0527 87.6148 37.8961 86.6028 37.8976C86.1086 37.9067 85.6328 37.7047 85.2887 37.3397C84.936 36.9918 84.7396 36.5089 84.7463 36.0063V19.4849C84.7396 18.9823 84.936 18.4994 85.2887 18.1515C85.6329 17.7866 86.1086 17.5846 86.6028 17.5935C87.6148 17.5951 88.4348 18.4385 88.4363 19.4793L88.435 19.4849Z" fill="#223AD3"/>
<path d="M116.047 32.1571C116.538 32.1415 117.013 32.3351 117.36 32.6922C117.707 33.0493 117.896 33.5381 117.88 34.0429C117.882 34.5704 117.671 35.075 117.299 35.4377C115.476 37.0854 113.333 37.9093 110.869 37.9093C108.142 37.9093 105.814 36.918 103.886 34.9356C101.959 32.9531 100.995 30.5591 100.995 27.7537C100.995 24.9493 101.959 22.5553 103.886 20.5719C105.814 18.5885 108.142 17.5978 110.869 17.5996C113.349 17.5996 115.495 18.4216 117.305 20.0656C117.715 20.4213 117.948 20.9469 117.94 21.4981C117.954 22.0054 117.766 22.4965 117.419 22.858C117.074 23.2203 116.598 23.4176 116.105 23.402C115.668 23.4056 115.244 23.2516 114.906 22.9668C114.344 22.4706 113.707 22.0725 113.02 21.7882C112.334 21.517 111.604 21.3816 110.869 21.3893C110.039 21.3834 109.217 21.5529 108.454 21.8872C107.718 22.2085 107.048 22.6699 106.479 23.2471C105.912 23.8261 105.461 24.513 105.149 25.2696C104.503 26.859 104.503 28.6485 105.149 30.2379C105.46 30.9946 105.912 31.6815 106.479 32.2603C107.048 32.8378 107.718 33.2993 108.454 33.6203C109.217 33.9553 110.039 34.1253 110.869 34.1196C111.603 34.1275 112.333 33.9955 113.02 33.7304C113.704 33.4542 114.336 33.0583 114.889 32.5602C115.224 32.3033 115.629 32.1622 116.047 32.1571Z" fill="#223AD3"/>
<path d="M123.718 36.0052C123.722 36.5114 123.528 36.998 123.18 37.356C122.832 37.7139 122.359 37.9132 121.867 37.9091C121.378 37.9159 120.908 37.7139 120.57 37.3511C120.215 36.9972 120.019 36.5079 120.028 35.9996V10.7984C120.019 10.2901 120.215 9.80072 120.57 9.44682C120.914 9.09292 121.38 8.89404 121.866 8.89404C122.352 8.89404 122.818 9.09292 123.162 9.44682C123.515 9.80291 123.715 10.2896 123.718 10.7984V19.5033C125.281 18.2582 127.12 17.6357 129.236 17.6357C130.446 17.6304 131.644 17.8836 132.754 18.3791C133.845 18.8616 134.84 19.5472 135.69 20.4016C136.542 21.2626 137.224 22.2846 137.699 23.4115C138.195 24.5748 138.447 25.8322 138.44 27.1022V36.0066C138.438 36.5154 138.237 37.0021 137.884 37.3581C137.54 37.712 137.074 37.9109 136.588 37.9109C136.102 37.9109 135.636 37.712 135.292 37.3581C134.938 37.0041 134.741 36.5148 134.75 36.0066V27.1008C134.754 26.3458 134.603 25.5984 134.309 24.9068C133.74 23.5476 132.686 22.464 131.365 21.8786C130.692 21.576 129.966 21.4216 129.232 21.4253C128.496 21.4198 127.767 21.5713 127.09 21.8703C125.768 22.4558 124.715 23.5421 124.15 24.904C123.862 25.5972 123.715 26.344 123.719 27.098L123.718 36.0052Z" fill="#223AD3"/>
<path d="M156.549 36.0232V35.6606C155.687 36.3767 154.716 36.9422 153.676 37.3343C152.613 37.7262 151.491 37.9226 150.361 37.9146C147.634 37.9146 145.306 36.9233 143.379 34.9409C141.451 32.9584 140.487 30.5644 140.487 27.759C140.487 24.9546 141.451 22.5606 143.379 20.5772C145.306 18.5938 147.634 17.6026 150.361 17.6035C153.065 17.6035 155.392 18.5948 157.344 20.5772C159.27 22.5569 160.233 24.9494 160.233 27.7549V36.0246C160.231 37.0655 159.411 37.9088 158.399 37.9104C157.905 37.9194 157.429 37.7174 157.085 37.3525C156.736 37.0043 156.542 36.5233 156.549 36.0232ZM150.36 21.389C149.523 21.3821 148.695 21.555 147.927 21.8967C146.45 22.5478 145.278 23.7636 144.656 25.2875C144.01 26.8642 144.01 28.6427 144.656 30.2195C145.278 31.7433 146.45 32.9591 147.927 33.6102C149.476 34.2871 151.226 34.2871 152.775 33.6102C153.51 33.2841 154.178 32.8163 154.742 32.2322C155.302 31.6491 155.75 30.963 156.064 30.2097C156.711 28.6388 156.711 26.8653 156.064 25.2944C155.75 24.5412 155.301 23.8552 154.742 23.272C154.178 22.6879 153.51 22.2201 152.775 21.8939C152.013 21.5546 151.19 21.3826 150.36 21.389Z" fill="#223AD3"/>
<path d="M162.158 36.0231V10.7982C162.147 10.2939 162.335 9.80651 162.678 9.44664C163.407 8.70919 164.576 8.70919 165.305 9.44664C165.649 9.80651 165.837 10.2939 165.826 10.7982V34.1192H166.672C167.161 34.1123 167.63 34.3144 167.969 34.6771C168.323 35.0311 168.52 35.5204 168.511 36.0287C168.51 37.0695 167.69 37.9129 166.678 37.9145H163.98C163.494 37.9219 163.028 37.7195 162.693 37.3565C162.345 37.0062 162.151 36.5243 162.158 36.0231Z" fill="#223AD3"/>
<path d="M13.1019 39.3204C16.0935 42.4286 19.7474 44 23.9722 44C28.1628 44 31.8167 42.4286 34.8312 39.3435C37.8114 36.2815 39.3186 32.5032 39.3186 28.1008C39.33 25.9979 38.9532 23.9527 38.1996 22L38.1882 21.9769C37.4003 20.0357 36.2699 18.3025 34.8198 16.8351C31.8053 13.7384 28.1514 12.167 23.9608 12.167C22.2245 12.167 20.2992 12.1686 18.7655 12.1679V20.9139H23.9608C24.8857 20.9139 25.7764 21.1103 26.6099 21.48C27.4206 21.8382 28.1514 22.3582 28.7794 23.0168C29.4074 23.687 29.8984 24.4496 30.2524 25.3046C30.9718 27.0725 30.9718 29.0945 30.2524 30.8508C29.8984 31.7059 29.4074 32.48 28.7794 33.1387C28.1514 33.7973 27.4206 34.3172 26.5985 34.687C25.7764 35.0567 24.9086 35.2416 24.0179 35.2416H23.9037C23.0131 35.2416 22.1339 35.0567 21.3003 34.6754C19.6561 33.9359 18.3772 32.584 17.6807 30.8624C16.9613 29.0945 17.1337 26.9149 17.1337 25.2815V20.9139L17.1326 12.1655L17.144 4.39076C17.1669 3.22374 16.7101 2.07983 15.888 1.25945C15.0887 0.45063 14.0382 0 12.9192 0H12.8735H12.7936C11.686 0 10.6012 0.462185 9.82479 1.27101C9.03692 2.09139 8.60302 3.23529 8.62586 4.39076V28.0777C8.62586 32.4454 10.1331 36.2237 13.1019 39.3204Z" fill="#223AD3"/>
<path d="M6.99348 20.8769C6.30784 20.8769 6.59864 20.8769 4.25092 20.8769C1.9032 20.8769 0 18.9279 0 16.5237C0 14.1195 1.9032 12.1705 4.25092 12.1705C5.33184 12.1705 6.30784 12.1704 6.99348 12.1704C6.99348 13.1066 6.99348 19.5796 6.99348 20.8769Z" fill="#223AD3"/>
</g>
<defs>
<clipPath id="clip0_2986_4702">
<rect width="168.511" height="44" fill="white"/>
</clipPath>
</defs>
</svg>
