<svg width="32" height="32" viewBox="0 0 32 32" fill="none" xmlns="http://www.w3.org/2000/svg">
<g clip-path="url(#clip0_515_2493)">
<path d="M11.4779 28.5966C13.6422 30.8571 16.2855 32 19.3418 32C22.3734 32 25.0167 30.8571 27.1975 28.6134C29.3534 26.3866 30.4438 23.6387 30.4438 20.437C30.452 18.9076 30.1795 17.4202 29.6343 16L29.626 15.9832C29.056 14.5714 28.2383 13.3109 27.1892 12.2437C25.0085 9.9916 22.3651 8.84874 19.3336 8.84874C18.0775 8.84874 16.6846 8.84988 15.5752 8.84939V15.2101H19.3336C20.0027 15.2101 20.647 15.3529 21.25 15.6219C21.8365 15.8824 22.3651 16.2605 22.8195 16.7395C23.2738 17.2269 23.629 17.7815 23.885 18.4034C24.4054 19.6891 24.4054 21.1597 23.885 22.437C23.629 23.0588 23.2738 23.6218 22.8195 24.1008C22.3651 24.5798 21.8365 24.958 21.2417 25.2269C20.647 25.4958 20.0192 25.6303 19.3749 25.6303H19.2923C18.648 25.6303 18.0119 25.4958 17.4089 25.2185C16.2194 24.6807 15.2942 23.6975 14.7904 22.4454C14.27 21.1597 14.3947 19.5745 14.3947 18.3866V15.2101L14.3939 8.84766L14.4021 3.19328C14.4186 2.34454 14.0882 1.5126 13.4935 0.915966C12.9153 0.327731 12.1553 0 11.3458 0H11.3127H11.2549C10.4537 0 9.66892 0.336134 9.10722 0.92437C8.53725 1.52101 8.22336 2.35294 8.23988 3.19328V20.4202C8.23988 23.5966 9.33025 26.3445 11.4779 28.5966Z" fill="#223AD3"/>
<path d="M7.05925 15.1826C6.56325 15.1826 6.77362 15.1826 5.07522 15.1826C3.37682 15.1826 2 13.7651 2 12.0166C2 10.2681 3.37682 8.85067 5.07522 8.85067C5.85719 8.85067 6.56325 8.85059 7.05925 8.85059C7.05925 9.53144 7.05925 14.2391 7.05925 15.1826Z" fill="#223AD3"/>
</g>
<defs>
<clipPath id="clip0_515_2493">
<rect width="32" height="32" fill="white"/>
</clipPath>
</defs>
</svg>
